<?xml version="1.0" standalone="no"?>
<!DOCTYPE svg PUBLIC "-//W3C//DTD SVG 20010904//EN"
 "http://www.w3.org/TR/2001/REC-SVG-20010904/DTD/svg10.dtd">
<svg version="1.0" xmlns="http://www.w3.org/2000/svg"
 width="274.000000pt" height="274.000000pt" viewBox="0 0 274.000000 274.000000"
 preserveAspectRatio="xMidYMid meet">
<metadata>
Created by potrace 1.11, written by Peter Selinger 2001-2013
</metadata>
<g transform="translate(0.000000,274.000000) scale(0.100000,-0.100000)"
fill="#000000" stroke="none">
<path d="M1612 2175 c-108 -33 -139 -130 -88 -271 14 -37 23 -71 20 -76 -3 -4
-17 -2 -32 6 -81 42 -251 45 -353 7 -165 -62 -235 -189 -227 -410 l3 -95 -32
-8 c-27 -7 -34 -15 -44 -50 -22 -83 24 -212 91 -256 23 -16 40 -37 49 -65 9
-28 36 -64 82 -109 38 -36 69 -69 69 -72 0 -3 -46 -19 -102 -36 -124 -38 -148
-47 -148 -58 0 -11 141 -77 195 -91 74 -20 116 -14 152 21 l33 32 6 -32 c4
-18 11 -35 15 -38 15 -9 10 61 -7 84 l-15 22 -24 -27 c-23 -27 -23 -28 -44 -9
-12 11 -21 31 -21 48 0 33 2 33 38 11 17 -10 22 -11 15 -3 -7 8 -13 16 -13 20
0 3 40 5 90 5 49 0 90 -1 90 -1 0 -1 -12 -15 -27 -32 -35 -37 -67 -122 -47
-122 8 0 14 6 14 13 0 7 7 23 16 36 l16 23 37 -35 36 -35 93 24 c100 25 192
69 192 90 0 12 -62 35 -176 64 -23 5 -48 17 -55 26 -12 15 -10 19 11 33 57 37
91 76 119 135 18 39 38 66 54 73 43 20 76 75 93 153 19 92 8 134 -39 151 l-33
11 0 122 c-1 108 -13 191 -40 259 -6 17 12 22 133 42 148 24 195 63 201 170 3
48 -1 69 -20 105 -29 55 -67 78 -142 84 -44 4 -69 12 -100 34 -53 38 -81 43
-134 27z m-10 -583 c24 -10 28 -18 34 -72 4 -33 10 -60 15 -60 4 0 13 -17 20
-37 26 -79 -19 -407 -66 -489 -28 -48 -76 -92 -159 -146 -51 -33 -67 -38 -116
-38 -70 0 -139 33 -215 102 -93 84 -117 156 -139 403 -11 123 -10 143 3 167 9
16 19 28 24 28 4 0 7 29 7 65 l0 64 38 10 c20 5 46 12 57 15 38 9 469 -1 497
-12z m-136 -878 c-3 -9 -6 -28 -6 -42 0 -15 -5 -34 -10 -42 -9 -13 -13 -12
-30 9 -26 30 -25 37 5 66 27 28 50 33 41 9z"/>
<path d="M1095 1396 c-16 -7 -39 -24 -50 -36 l-20 -23 20 9 c11 5 66 8 123 8
79 -1 102 2 102 12 0 37 -114 57 -175 30z"/>
<path d="M1408 1394 c-16 -8 -28 -20 -28 -27 0 -10 28 -13 114 -13 121 1 131
7 62 40 -42 20 -112 20 -148 0z"/>
<path d="M1095 1283 c-23 -6 -67 -34 -62 -40 2 -2 27 2 55 8 49 10 97 5 157
-16 18 -6 17 -4 -3 14 -36 32 -98 46 -147 34z"/>
<path d="M1445 1274 c-22 -8 -45 -12 -51 -10 -6 2 -17 -1 -23 -7 -16 -16 -14
-100 4 -123 13 -17 14 -14 15 38 0 55 1 57 33 67 63 20 102 22 150 7 26 -8 47
-11 47 -8 -1 16 -17 29 -49 40 -44 15 -76 14 -126 -4z"/>
<path d="M1381 1060 c-28 -24 -71 -26 -111 -5 -36 19 -39 7 -7 -23 45 -42 147
-19 147 33 0 19 0 19 -29 -5z"/>
<path d="M1166 951 c-16 -25 130 -50 218 -37 77 12 52 24 -61 29 -60 3 -118 8
-129 12 -13 4 -25 2 -28 -4z"/>
<path d="M1290 880 c8 -5 24 -10 35 -10 11 0 27 5 35 10 11 7 1 10 -35 10 -36
0 -46 -3 -35 -10z"/>
</g>
</svg>
